<?xml version="1.0" encoding="UTF-8" standalone="no"?>
<svg width="12px" height="12px" viewBox="0 0 12 12" version="1.1" xmlns="http://www.w3.org/2000/svg" xmlns:xlink="http://www.w3.org/1999/xlink">
    <!-- Generator: sketchtool 47.1 (45422) - http://www.bohemiancoding.com/sketch -->
    <title>0BF29C3D-BF4B-4B80-9B88-3380EDE7D91C</title>
    <desc>Created with sketchtool.</desc>
    <defs></defs>
    <g id="Symbols" stroke="none" stroke-width="1" fill="none" fill-rule="evenodd">
        <g id="Icon/12x12/Email-Purple" fill="#452E8A">
            <path d="M6,5.1548 L3.606,2.9998 L8.394,2.9998 L6,5.1548 Z M12,3.0078 L10,5.4998 L10,8.9998 L2,8.9998 L2,4.2453 L5.331,7.2433 C5.521,7.4148 5.7605,7.4998 6,7.4998 C6.2395,7.4998 6.479,7.4148 6.669,7.2433 L11.669,2.7433 L11.669,2.7433 L11.931,2.5073 C11.709,1.6448 10.929,0.9998 10,0.9998 L2,0.9998 C0.9,0.9998 0,1.8998 0,2.9998 L0,8.9998 C0,10.0998 0.9,10.9998 2,10.9998 L12,10.9998 L12,3.0078 Z" id="Fill-1"></path>
        </g>
    </g>
</svg>