<?xml version="1.0" encoding="UTF-8" standalone="no"?>
<svg width="18px" height="18px" viewBox="0 0 18 18" version="1.1" xmlns="http://www.w3.org/2000/svg" xmlns:xlink="http://www.w3.org/1999/xlink">
    <!-- Generator: sketchtool 47.1 (45422) - http://www.bohemiancoding.com/sketch -->
    <title>BEA2D1CC-F0B2-4174-B61B-773275FC496C</title>
    <desc>Created with sketchtool.</desc>
    <defs></defs>
    <g id="Symbols" stroke="none" stroke-width="1" fill="none" fill-rule="evenodd">
        <g id="Icon/18x18/User" fill="#06A790">
            <path d="M15.5,16 L2.5,16 L2.5,15.0625 C2.5,14.3025 3.81,13.0635 5.8525,12.3655 C6.704,13.08 7.795,13.5 9.016,13.5 C10.228,13.5 11.31,13.081 12.156,12.3685 C14.194,13.0665 15.5,14.3035 15.5,15.0625 L15.5,16 Z M6,5.322 C6,3.4285 7.273,2 9.016,2 C10.758,2 12,3.4285 12,5.322 L12,8.178 C12,8.912 11.8115,9.5745 11.4815,10.113 C11.42,10.2135 11.3525,10.3085 11.281,10.4 C11.272,10.412 11.262,10.4235 11.253,10.4355 C11.1875,10.5165 11.1185,10.593 11.046,10.666 C11.035,10.6775 11.024,10.689 11.0125,10.7 C10.931,10.7795 10.8455,10.855 10.755,10.924 C10.7545,10.9245 10.754,10.925 10.753,10.9255 C10.6585,10.998 10.559,11.064 10.4555,11.1235 C10.451,11.1265 10.446,11.1285 10.4415,11.131 C10.35,11.183 10.255,11.229 10.1575,11.2705 C10.1285,11.283 10.0985,11.2935 10.069,11.305 C9.993,11.3345 9.915,11.3605 9.8355,11.3835 C9.7995,11.394 9.763,11.404 9.7265,11.413 C9.6465,11.4325 9.565,11.4475 9.4825,11.4605 C9.4475,11.466 9.4125,11.473 9.377,11.477 C9.259,11.491 9.139,11.5 9.016,11.5 C8.893,11.5 8.773,11.491 8.6545,11.477 C8.6185,11.473 8.5835,11.466 8.548,11.4605 C8.4655,11.4475 8.3835,11.4325 8.3035,11.413 C8.2665,11.404 8.23,11.3935 8.1935,11.383 C8.1135,11.3605 8.035,11.334 7.9585,11.3045 C7.9285,11.2935 7.8985,11.2825 7.869,11.27 C7.77,11.2285 7.6735,11.182 7.581,11.13 C7.577,11.1275 7.5725,11.1255 7.5685,11.1235 C7.464,11.0635 7.3635,10.9975 7.2675,10.925 C7.266,10.924 7.2645,10.9225 7.263,10.9215 C7.1725,10.853 7.087,10.7785 7.0045,10.6995 C6.9925,10.688 6.981,10.676 6.9695,10.6645 C6.8965,10.5915 6.827,10.515 6.761,10.4345 C6.751,10.4225 6.741,10.4105 6.731,10.398 C6.659,10.307 6.5905,10.2115 6.5275,10.111 C6.1925,9.573 6,8.911 6,8.178 L6,5.322 Z M13.4305,10.725 C13.795,9.9765 14,9.113 14,8.178 L14,5.322 C14,2.288 11.8575,0 9.016,0 C6.1565,0 4,2.288 4,5.322 L4,8.178 C4,9.1125 4.206,9.9755 4.573,10.7235 C2.3305,11.648 0.5,13.2415 0.5,15.0625 L0.5,16 C0.5,17.1045 1.3955,18 2.5,18 L17.5,18 L17.5,15.0625 C17.5,13.2425 15.671,11.649 13.4305,10.725 L13.4305,10.725 Z" id="Page-1"></path>
        </g>
    </g>
</svg>